<mxfile host="app.diagrams.net" modified="2021-04-27T02:39:16.488Z" agent="5.0 (Macintosh; Intel Mac OS X 11_2_3) AppleWebKit/537.36 (KHTML, like Gecko) Chrome/89.0.4389.82 Safari/537.36" etag="OtdHIIzsdCovxFwS_0oC" version="14.6.1" type="github">
  <diagram id="C5RBs43oDa-KdzZeNtuy" name="Page-1">
    <mxGraphModel dx="2498" dy="877" grid="1" gridSize="10" guides="1" tooltips="1" connect="1" arrows="1" fold="1" page="0" pageScale="1" pageWidth="827" pageHeight="1169" math="0" shadow="0">
      <root>
        <mxCell id="WIyWlLk6GJQsqaUBKTNV-0" />
        <mxCell id="WIyWlLk6GJQsqaUBKTNV-1" parent="WIyWlLk6GJQsqaUBKTNV-0" />
        <mxCell id="2IMz6kc5Xn535oeAkMrh-132" value="comments" style="shape=table;startSize=30;container=1;collapsible=1;childLayout=tableLayout;fixedRows=1;rowLines=0;fontStyle=1;align=center;resizeLast=1;" parent="WIyWlLk6GJQsqaUBKTNV-1" vertex="1">
          <mxGeometry x="-140.2198581560284" y="611.0048433510315" width="150.2795744680851" height="240" as="geometry" />
        </mxCell>
        <mxCell id="2IMz6kc5Xn535oeAkMrh-133" value="" style="shape=partialRectangle;collapsible=0;dropTarget=0;pointerEvents=0;fillColor=none;points=[[0,0.5],[1,0.5]];portConstraint=eastwest;top=0;left=0;right=0;bottom=1;" parent="2IMz6kc5Xn535oeAkMrh-132" vertex="1">
          <mxGeometry y="30" width="150.2795744680851" height="30" as="geometry" />
        </mxCell>
        <mxCell id="2IMz6kc5Xn535oeAkMrh-134" value="PK" style="shape=partialRectangle;overflow=hidden;connectable=0;fillColor=none;top=0;left=0;bottom=0;right=0;fontStyle=1;" parent="2IMz6kc5Xn535oeAkMrh-133" vertex="1">
          <mxGeometry width="30" height="30" as="geometry" />
        </mxCell>
        <mxCell id="2IMz6kc5Xn535oeAkMrh-135" value="id(index)" style="shape=partialRectangle;overflow=hidden;connectable=0;fillColor=none;top=0;left=0;bottom=0;right=0;align=left;spacingLeft=6;fontStyle=5;" parent="2IMz6kc5Xn535oeAkMrh-133" vertex="1">
          <mxGeometry x="30" width="120.27957446808509" height="30" as="geometry" />
        </mxCell>
        <mxCell id="2IMz6kc5Xn535oeAkMrh-136" value="" style="shape=partialRectangle;collapsible=0;dropTarget=0;pointerEvents=0;fillColor=none;points=[[0,0.5],[1,0.5]];portConstraint=eastwest;top=0;left=0;right=0;bottom=0;" parent="2IMz6kc5Xn535oeAkMrh-132" vertex="1">
          <mxGeometry y="60" width="150.2795744680851" height="30" as="geometry" />
        </mxCell>
        <mxCell id="2IMz6kc5Xn535oeAkMrh-137" value="" style="shape=partialRectangle;overflow=hidden;connectable=0;fillColor=none;top=0;left=0;bottom=0;right=0;" parent="2IMz6kc5Xn535oeAkMrh-136" vertex="1">
          <mxGeometry width="30" height="30" as="geometry" />
        </mxCell>
        <mxCell id="2IMz6kc5Xn535oeAkMrh-138" value="user_id(FK,index)" style="shape=partialRectangle;overflow=hidden;connectable=0;fillColor=none;top=0;left=0;bottom=0;right=0;align=left;spacingLeft=6;" parent="2IMz6kc5Xn535oeAkMrh-136" vertex="1">
          <mxGeometry x="30" width="120.27957446808509" height="30" as="geometry" />
        </mxCell>
        <mxCell id="2IMz6kc5Xn535oeAkMrh-139" value="" style="shape=partialRectangle;collapsible=0;dropTarget=0;pointerEvents=0;fillColor=none;points=[[0,0.5],[1,0.5]];portConstraint=eastwest;top=0;left=0;right=0;bottom=0;" parent="2IMz6kc5Xn535oeAkMrh-132" vertex="1">
          <mxGeometry y="90" width="150.2795744680851" height="30" as="geometry" />
        </mxCell>
        <mxCell id="2IMz6kc5Xn535oeAkMrh-140" value="" style="shape=partialRectangle;overflow=hidden;connectable=0;fillColor=none;top=0;left=0;bottom=0;right=0;" parent="2IMz6kc5Xn535oeAkMrh-139" vertex="1">
          <mxGeometry width="30" height="30" as="geometry" />
        </mxCell>
        <mxCell id="2IMz6kc5Xn535oeAkMrh-141" value="log_id(FK,index)" style="shape=partialRectangle;overflow=hidden;connectable=0;fillColor=none;top=0;left=0;bottom=0;right=0;align=left;spacingLeft=6;" parent="2IMz6kc5Xn535oeAkMrh-139" vertex="1">
          <mxGeometry x="30" width="120.27957446808509" height="30" as="geometry" />
        </mxCell>
        <mxCell id="2IMz6kc5Xn535oeAkMrh-142" value="" style="shape=partialRectangle;collapsible=0;dropTarget=0;pointerEvents=0;fillColor=none;points=[[0,0.5],[1,0.5]];portConstraint=eastwest;top=0;left=0;right=0;bottom=0;" parent="2IMz6kc5Xn535oeAkMrh-132" vertex="1">
          <mxGeometry y="120" width="150.2795744680851" height="30" as="geometry" />
        </mxCell>
        <mxCell id="2IMz6kc5Xn535oeAkMrh-143" value="" style="shape=partialRectangle;overflow=hidden;connectable=0;fillColor=none;top=0;left=0;bottom=0;right=0;" parent="2IMz6kc5Xn535oeAkMrh-142" vertex="1">
          <mxGeometry width="30" height="30" as="geometry" />
        </mxCell>
        <mxCell id="2IMz6kc5Xn535oeAkMrh-144" value="text" style="shape=partialRectangle;overflow=hidden;connectable=0;fillColor=none;top=0;left=0;bottom=0;right=0;align=left;spacingLeft=6;" parent="2IMz6kc5Xn535oeAkMrh-142" vertex="1">
          <mxGeometry x="30" width="120.27957446808509" height="30" as="geometry" />
        </mxCell>
        <mxCell id="2IMz6kc5Xn535oeAkMrh-145" value="" style="shape=partialRectangle;collapsible=0;dropTarget=0;pointerEvents=0;fillColor=none;points=[[0,0.5],[1,0.5]];portConstraint=eastwest;top=0;left=0;right=0;bottom=0;" parent="2IMz6kc5Xn535oeAkMrh-132" vertex="1">
          <mxGeometry y="150" width="150.2795744680851" height="30" as="geometry" />
        </mxCell>
        <mxCell id="2IMz6kc5Xn535oeAkMrh-146" value="" style="shape=partialRectangle;overflow=hidden;connectable=0;fillColor=none;top=0;left=0;bottom=0;right=0;" parent="2IMz6kc5Xn535oeAkMrh-145" vertex="1">
          <mxGeometry width="30" height="30" as="geometry" />
        </mxCell>
        <mxCell id="2IMz6kc5Xn535oeAkMrh-147" value="created_at" style="shape=partialRectangle;overflow=hidden;connectable=0;fillColor=none;top=0;left=0;bottom=0;right=0;align=left;spacingLeft=6;" parent="2IMz6kc5Xn535oeAkMrh-145" vertex="1">
          <mxGeometry x="30" width="120.27957446808509" height="30" as="geometry" />
        </mxCell>
        <mxCell id="2IMz6kc5Xn535oeAkMrh-148" value="" style="shape=partialRectangle;collapsible=0;dropTarget=0;pointerEvents=0;fillColor=none;points=[[0,0.5],[1,0.5]];portConstraint=eastwest;top=0;left=0;right=0;bottom=0;" parent="2IMz6kc5Xn535oeAkMrh-132" vertex="1">
          <mxGeometry y="180" width="150.2795744680851" height="30" as="geometry" />
        </mxCell>
        <mxCell id="2IMz6kc5Xn535oeAkMrh-149" value="" style="shape=partialRectangle;overflow=hidden;connectable=0;fillColor=none;top=0;left=0;bottom=0;right=0;" parent="2IMz6kc5Xn535oeAkMrh-148" vertex="1">
          <mxGeometry width="30" height="30" as="geometry" />
        </mxCell>
        <mxCell id="2IMz6kc5Xn535oeAkMrh-150" value="updated_at" style="shape=partialRectangle;overflow=hidden;connectable=0;fillColor=none;top=0;left=0;bottom=0;right=0;align=left;spacingLeft=6;" parent="2IMz6kc5Xn535oeAkMrh-148" vertex="1">
          <mxGeometry x="30" width="120.27957446808509" height="30" as="geometry" />
        </mxCell>
        <mxCell id="2IMz6kc5Xn535oeAkMrh-151" value="" style="shape=partialRectangle;collapsible=0;dropTarget=0;pointerEvents=0;fillColor=none;points=[[0,0.5],[1,0.5]];portConstraint=eastwest;top=0;left=0;right=0;bottom=0;" parent="2IMz6kc5Xn535oeAkMrh-132" vertex="1">
          <mxGeometry y="210" width="150.2795744680851" height="30" as="geometry" />
        </mxCell>
        <mxCell id="2IMz6kc5Xn535oeAkMrh-152" value="" style="shape=partialRectangle;overflow=hidden;connectable=0;fillColor=none;top=0;left=0;bottom=0;right=0;" parent="2IMz6kc5Xn535oeAkMrh-151" vertex="1">
          <mxGeometry width="30" height="30" as="geometry" />
        </mxCell>
        <mxCell id="2IMz6kc5Xn535oeAkMrh-153" value="deleted_at" style="shape=partialRectangle;overflow=hidden;connectable=0;fillColor=none;top=0;left=0;bottom=0;right=0;align=left;spacingLeft=6;" parent="2IMz6kc5Xn535oeAkMrh-151" vertex="1">
          <mxGeometry x="30" width="120.27957446808509" height="30" as="geometry" />
        </mxCell>
        <mxCell id="2IMz6kc5Xn535oeAkMrh-196" value="event_logs" style="shape=table;startSize=30;container=1;collapsible=1;childLayout=tableLayout;fixedRows=1;rowLines=0;fontStyle=1;align=center;resizeLast=1;" parent="WIyWlLk6GJQsqaUBKTNV-1" vertex="1">
          <mxGeometry x="462.14953271028025" y="264.3401364263167" width="187.85046728971963" height="270" as="geometry" />
        </mxCell>
        <mxCell id="2IMz6kc5Xn535oeAkMrh-197" value="" style="shape=partialRectangle;collapsible=0;dropTarget=0;pointerEvents=0;fillColor=none;points=[[0,0.5],[1,0.5]];portConstraint=eastwest;top=0;left=0;right=0;bottom=1;" parent="2IMz6kc5Xn535oeAkMrh-196" vertex="1">
          <mxGeometry y="30" width="187.85046728971963" height="30" as="geometry" />
        </mxCell>
        <mxCell id="2IMz6kc5Xn535oeAkMrh-198" value="PK" style="shape=partialRectangle;overflow=hidden;connectable=0;fillColor=none;top=0;left=0;bottom=0;right=0;fontStyle=1;" parent="2IMz6kc5Xn535oeAkMrh-197" vertex="1">
          <mxGeometry width="30" height="30" as="geometry" />
        </mxCell>
        <mxCell id="2IMz6kc5Xn535oeAkMrh-199" value="id(index)" style="shape=partialRectangle;overflow=hidden;connectable=0;fillColor=none;top=0;left=0;bottom=0;right=0;align=left;spacingLeft=6;fontStyle=5;" parent="2IMz6kc5Xn535oeAkMrh-197" vertex="1">
          <mxGeometry x="30" width="157.85046728971963" height="30" as="geometry" />
        </mxCell>
        <mxCell id="2IMz6kc5Xn535oeAkMrh-200" value="" style="shape=partialRectangle;collapsible=0;dropTarget=0;pointerEvents=0;fillColor=none;points=[[0,0.5],[1,0.5]];portConstraint=eastwest;top=0;left=0;right=0;bottom=0;" parent="2IMz6kc5Xn535oeAkMrh-196" vertex="1">
          <mxGeometry y="60" width="187.85046728971963" height="30" as="geometry" />
        </mxCell>
        <mxCell id="2IMz6kc5Xn535oeAkMrh-201" value="" style="shape=partialRectangle;overflow=hidden;connectable=0;fillColor=none;top=0;left=0;bottom=0;right=0;" parent="2IMz6kc5Xn535oeAkMrh-200" vertex="1">
          <mxGeometry width="30" height="30" as="geometry" />
        </mxCell>
        <mxCell id="2IMz6kc5Xn535oeAkMrh-202" value="log_id(FK,index)" style="shape=partialRectangle;overflow=hidden;connectable=0;fillColor=none;top=0;left=0;bottom=0;right=0;align=left;spacingLeft=6;" parent="2IMz6kc5Xn535oeAkMrh-200" vertex="1">
          <mxGeometry x="30" width="157.85046728971963" height="30" as="geometry" />
        </mxCell>
        <mxCell id="2IMz6kc5Xn535oeAkMrh-203" value="" style="shape=partialRectangle;collapsible=0;dropTarget=0;pointerEvents=0;fillColor=none;points=[[0,0.5],[1,0.5]];portConstraint=eastwest;top=0;left=0;right=0;bottom=0;" parent="2IMz6kc5Xn535oeAkMrh-196" vertex="1">
          <mxGeometry y="90" width="187.85046728971963" height="30" as="geometry" />
        </mxCell>
        <mxCell id="2IMz6kc5Xn535oeAkMrh-204" value="" style="shape=partialRectangle;overflow=hidden;connectable=0;fillColor=none;top=0;left=0;bottom=0;right=0;" parent="2IMz6kc5Xn535oeAkMrh-203" vertex="1">
          <mxGeometry width="30" height="30" as="geometry" />
        </mxCell>
        <mxCell id="2IMz6kc5Xn535oeAkMrh-205" value="event_id(FK,index)" style="shape=partialRectangle;overflow=hidden;connectable=0;fillColor=none;top=0;left=0;bottom=0;right=0;align=left;spacingLeft=6;" parent="2IMz6kc5Xn535oeAkMrh-203" vertex="1">
          <mxGeometry x="30" width="157.85046728971963" height="30" as="geometry" />
        </mxCell>
        <mxCell id="2IMz6kc5Xn535oeAkMrh-206" value="" style="shape=partialRectangle;collapsible=0;dropTarget=0;pointerEvents=0;fillColor=none;points=[[0,0.5],[1,0.5]];portConstraint=eastwest;top=0;left=0;right=0;bottom=0;" parent="2IMz6kc5Xn535oeAkMrh-196" vertex="1">
          <mxGeometry y="120" width="187.85046728971963" height="30" as="geometry" />
        </mxCell>
        <mxCell id="2IMz6kc5Xn535oeAkMrh-207" value="" style="shape=partialRectangle;overflow=hidden;connectable=0;fillColor=none;top=0;left=0;bottom=0;right=0;" parent="2IMz6kc5Xn535oeAkMrh-206" vertex="1">
          <mxGeometry width="30" height="30" as="geometry" />
        </mxCell>
        <mxCell id="2IMz6kc5Xn535oeAkMrh-208" value="weight" style="shape=partialRectangle;overflow=hidden;connectable=0;fillColor=none;top=0;left=0;bottom=0;right=0;align=left;spacingLeft=6;" parent="2IMz6kc5Xn535oeAkMrh-206" vertex="1">
          <mxGeometry x="30" width="157.85046728971963" height="30" as="geometry" />
        </mxCell>
        <mxCell id="2IMz6kc5Xn535oeAkMrh-209" value="" style="shape=partialRectangle;collapsible=0;dropTarget=0;pointerEvents=0;fillColor=none;points=[[0,0.5],[1,0.5]];portConstraint=eastwest;top=0;left=0;right=0;bottom=0;" parent="2IMz6kc5Xn535oeAkMrh-196" vertex="1">
          <mxGeometry y="150" width="187.85046728971963" height="30" as="geometry" />
        </mxCell>
        <mxCell id="2IMz6kc5Xn535oeAkMrh-210" value="" style="shape=partialRectangle;overflow=hidden;connectable=0;fillColor=none;top=0;left=0;bottom=0;right=0;" parent="2IMz6kc5Xn535oeAkMrh-209" vertex="1">
          <mxGeometry width="30" height="30" as="geometry" />
        </mxCell>
        <mxCell id="2IMz6kc5Xn535oeAkMrh-211" value="rep" style="shape=partialRectangle;overflow=hidden;connectable=0;fillColor=none;top=0;left=0;bottom=0;right=0;align=left;spacingLeft=6;" parent="2IMz6kc5Xn535oeAkMrh-209" vertex="1">
          <mxGeometry x="30" width="157.85046728971963" height="30" as="geometry" />
        </mxCell>
        <mxCell id="2IMz6kc5Xn535oeAkMrh-212" value="" style="shape=partialRectangle;collapsible=0;dropTarget=0;pointerEvents=0;fillColor=none;points=[[0,0.5],[1,0.5]];portConstraint=eastwest;top=0;left=0;right=0;bottom=0;" parent="2IMz6kc5Xn535oeAkMrh-196" vertex="1">
          <mxGeometry y="180" width="187.85046728971963" height="30" as="geometry" />
        </mxCell>
        <mxCell id="2IMz6kc5Xn535oeAkMrh-213" value="" style="shape=partialRectangle;overflow=hidden;connectable=0;fillColor=none;top=0;left=0;bottom=0;right=0;" parent="2IMz6kc5Xn535oeAkMrh-212" vertex="1">
          <mxGeometry width="30" height="30" as="geometry" />
        </mxCell>
        <mxCell id="2IMz6kc5Xn535oeAkMrh-214" value="set" style="shape=partialRectangle;overflow=hidden;connectable=0;fillColor=none;top=0;left=0;bottom=0;right=0;align=left;spacingLeft=6;" parent="2IMz6kc5Xn535oeAkMrh-212" vertex="1">
          <mxGeometry x="30" width="157.85046728971963" height="30" as="geometry" />
        </mxCell>
        <mxCell id="2IMz6kc5Xn535oeAkMrh-215" value="" style="shape=partialRectangle;collapsible=0;dropTarget=0;pointerEvents=0;fillColor=none;points=[[0,0.5],[1,0.5]];portConstraint=eastwest;top=0;left=0;right=0;bottom=0;" parent="2IMz6kc5Xn535oeAkMrh-196" vertex="1">
          <mxGeometry y="210" width="187.85046728971963" height="30" as="geometry" />
        </mxCell>
        <mxCell id="2IMz6kc5Xn535oeAkMrh-216" value="" style="shape=partialRectangle;overflow=hidden;connectable=0;fillColor=none;top=0;left=0;bottom=0;right=0;" parent="2IMz6kc5Xn535oeAkMrh-215" vertex="1">
          <mxGeometry width="30" height="30" as="geometry" />
        </mxCell>
        <mxCell id="2IMz6kc5Xn535oeAkMrh-217" value="created_at" style="shape=partialRectangle;overflow=hidden;connectable=0;fillColor=none;top=0;left=0;bottom=0;right=0;align=left;spacingLeft=6;" parent="2IMz6kc5Xn535oeAkMrh-215" vertex="1">
          <mxGeometry x="30" width="157.85046728971963" height="30" as="geometry" />
        </mxCell>
        <mxCell id="2IMz6kc5Xn535oeAkMrh-218" value="" style="shape=partialRectangle;collapsible=0;dropTarget=0;pointerEvents=0;fillColor=none;points=[[0,0.5],[1,0.5]];portConstraint=eastwest;top=0;left=0;right=0;bottom=0;" parent="2IMz6kc5Xn535oeAkMrh-196" vertex="1">
          <mxGeometry y="240" width="187.85046728971963" height="30" as="geometry" />
        </mxCell>
        <mxCell id="2IMz6kc5Xn535oeAkMrh-219" value="" style="shape=partialRectangle;overflow=hidden;connectable=0;fillColor=none;top=0;left=0;bottom=0;right=0;" parent="2IMz6kc5Xn535oeAkMrh-218" vertex="1">
          <mxGeometry width="30" height="30" as="geometry" />
        </mxCell>
        <mxCell id="2IMz6kc5Xn535oeAkMrh-220" value="updated_at" style="shape=partialRectangle;overflow=hidden;connectable=0;fillColor=none;top=0;left=0;bottom=0;right=0;align=left;spacingLeft=6;" parent="2IMz6kc5Xn535oeAkMrh-218" vertex="1">
          <mxGeometry x="30" width="157.85046728971963" height="30" as="geometry" />
        </mxCell>
        <mxCell id="2IMz6kc5Xn535oeAkMrh-33" value="" style="line;strokeWidth=2;html=1;rotation=-45;" parent="WIyWlLk6GJQsqaUBKTNV-1" vertex="1">
          <mxGeometry x="-34.351775700934695" y="554.9382787323304" width="25.046728971962615" as="geometry" />
        </mxCell>
        <mxCell id="2IMz6kc5Xn535oeAkMrh-54" value="users" style="shape=table;startSize=50;container=1;collapsible=1;childLayout=tableLayout;fixedRows=1;rowLines=0;fontStyle=1;align=center;resizeLast=1;" parent="WIyWlLk6GJQsqaUBKTNV-1" vertex="1">
          <mxGeometry x="-452.0560747663551" y="337.3226547426384" width="175.3271028037383" height="390" as="geometry">
            <mxRectangle x="240" y="320" width="60" height="50" as="alternateBounds" />
          </mxGeometry>
        </mxCell>
        <mxCell id="2IMz6kc5Xn535oeAkMrh-55" value="" style="shape=partialRectangle;collapsible=0;dropTarget=0;pointerEvents=0;fillColor=none;points=[[0,0.5],[1,0.5]];portConstraint=eastwest;top=0;left=0;right=0;bottom=1;" parent="2IMz6kc5Xn535oeAkMrh-54" vertex="1">
          <mxGeometry y="50" width="175.3271028037383" height="50" as="geometry" />
        </mxCell>
        <mxCell id="2IMz6kc5Xn535oeAkMrh-56" value="PK" style="shape=partialRectangle;overflow=hidden;connectable=0;fillColor=none;top=0;left=0;bottom=0;right=0;fontStyle=1;" parent="2IMz6kc5Xn535oeAkMrh-55" vertex="1">
          <mxGeometry width="30" height="50" as="geometry" />
        </mxCell>
        <mxCell id="2IMz6kc5Xn535oeAkMrh-57" value="id(index)" style="shape=partialRectangle;overflow=hidden;connectable=0;fillColor=none;top=0;left=0;bottom=0;right=0;align=left;spacingLeft=6;fontStyle=5;" parent="2IMz6kc5Xn535oeAkMrh-55" vertex="1">
          <mxGeometry x="30" width="145.3271028037383" height="50" as="geometry" />
        </mxCell>
        <mxCell id="2IMz6kc5Xn535oeAkMrh-58" value="" style="shape=partialRectangle;collapsible=0;dropTarget=0;pointerEvents=0;fillColor=none;points=[[0,0.5],[1,0.5]];portConstraint=eastwest;top=0;left=0;right=0;bottom=0;" parent="2IMz6kc5Xn535oeAkMrh-54" vertex="1">
          <mxGeometry y="100" width="175.3271028037383" height="30" as="geometry" />
        </mxCell>
        <mxCell id="2IMz6kc5Xn535oeAkMrh-59" value="" style="shape=partialRectangle;overflow=hidden;connectable=0;fillColor=none;top=0;left=0;bottom=0;right=0;" parent="2IMz6kc5Xn535oeAkMrh-58" vertex="1">
          <mxGeometry width="30" height="30" as="geometry" />
        </mxCell>
        <mxCell id="2IMz6kc5Xn535oeAkMrh-60" value="name" style="shape=partialRectangle;overflow=hidden;connectable=0;fillColor=none;top=0;left=0;bottom=0;right=0;align=left;spacingLeft=6;" parent="2IMz6kc5Xn535oeAkMrh-58" vertex="1">
          <mxGeometry x="30" width="145.3271028037383" height="30" as="geometry" />
        </mxCell>
        <mxCell id="2IMz6kc5Xn535oeAkMrh-61" value="" style="shape=partialRectangle;collapsible=0;dropTarget=0;pointerEvents=0;fillColor=none;points=[[0,0.5],[1,0.5]];portConstraint=eastwest;top=0;left=0;right=0;bottom=0;" parent="2IMz6kc5Xn535oeAkMrh-54" vertex="1">
          <mxGeometry y="130" width="175.3271028037383" height="30" as="geometry" />
        </mxCell>
        <mxCell id="2IMz6kc5Xn535oeAkMrh-62" value="" style="shape=partialRectangle;overflow=hidden;connectable=0;fillColor=none;top=0;left=0;bottom=0;right=0;" parent="2IMz6kc5Xn535oeAkMrh-61" vertex="1">
          <mxGeometry width="30" height="30" as="geometry" />
        </mxCell>
        <mxCell id="2IMz6kc5Xn535oeAkMrh-63" value="screen_name" style="shape=partialRectangle;overflow=hidden;connectable=0;fillColor=none;top=0;left=0;bottom=0;right=0;align=left;spacingLeft=6;" parent="2IMz6kc5Xn535oeAkMrh-61" vertex="1">
          <mxGeometry x="30" width="145.3271028037383" height="30" as="geometry" />
        </mxCell>
        <mxCell id="2IMz6kc5Xn535oeAkMrh-64" value="" style="shape=partialRectangle;collapsible=0;dropTarget=0;pointerEvents=0;fillColor=none;points=[[0,0.5],[1,0.5]];portConstraint=eastwest;top=0;left=0;right=0;bottom=0;" parent="2IMz6kc5Xn535oeAkMrh-54" vertex="1">
          <mxGeometry y="160" width="175.3271028037383" height="30" as="geometry" />
        </mxCell>
        <mxCell id="2IMz6kc5Xn535oeAkMrh-65" value="" style="shape=partialRectangle;overflow=hidden;connectable=0;fillColor=none;top=0;left=0;bottom=0;right=0;" parent="2IMz6kc5Xn535oeAkMrh-64" vertex="1">
          <mxGeometry width="30" height="30" as="geometry" />
        </mxCell>
        <mxCell id="2IMz6kc5Xn535oeAkMrh-66" value="email" style="shape=partialRectangle;overflow=hidden;connectable=0;fillColor=none;top=0;left=0;bottom=0;right=0;align=left;spacingLeft=6;" parent="2IMz6kc5Xn535oeAkMrh-64" vertex="1">
          <mxGeometry x="30" width="145.3271028037383" height="30" as="geometry" />
        </mxCell>
        <mxCell id="2IMz6kc5Xn535oeAkMrh-67" value="" style="shape=partialRectangle;collapsible=0;dropTarget=0;pointerEvents=0;fillColor=none;points=[[0,0.5],[1,0.5]];portConstraint=eastwest;top=0;left=0;right=0;bottom=0;" parent="2IMz6kc5Xn535oeAkMrh-54" vertex="1">
          <mxGeometry y="190" width="175.3271028037383" height="30" as="geometry" />
        </mxCell>
        <mxCell id="2IMz6kc5Xn535oeAkMrh-68" value="" style="shape=partialRectangle;overflow=hidden;connectable=0;fillColor=none;top=0;left=0;bottom=0;right=0;" parent="2IMz6kc5Xn535oeAkMrh-67" vertex="1">
          <mxGeometry width="30" height="30" as="geometry" />
        </mxCell>
        <mxCell id="2IMz6kc5Xn535oeAkMrh-69" value="email_verified_at" style="shape=partialRectangle;overflow=hidden;connectable=0;fillColor=none;top=0;left=0;bottom=0;right=0;align=left;spacingLeft=6;" parent="2IMz6kc5Xn535oeAkMrh-67" vertex="1">
          <mxGeometry x="30" width="145.3271028037383" height="30" as="geometry" />
        </mxCell>
        <mxCell id="2IMz6kc5Xn535oeAkMrh-70" value="" style="shape=partialRectangle;collapsible=0;dropTarget=0;pointerEvents=0;fillColor=none;points=[[0,0.5],[1,0.5]];portConstraint=eastwest;top=0;left=0;right=0;bottom=0;" parent="2IMz6kc5Xn535oeAkMrh-54" vertex="1">
          <mxGeometry y="220" width="175.3271028037383" height="30" as="geometry" />
        </mxCell>
        <mxCell id="2IMz6kc5Xn535oeAkMrh-71" value="" style="shape=partialRectangle;overflow=hidden;connectable=0;fillColor=none;top=0;left=0;bottom=0;right=0;" parent="2IMz6kc5Xn535oeAkMrh-70" vertex="1">
          <mxGeometry width="30" height="30" as="geometry" />
        </mxCell>
        <mxCell id="2IMz6kc5Xn535oeAkMrh-72" value="password" style="shape=partialRectangle;overflow=hidden;connectable=0;fillColor=none;top=0;left=0;bottom=0;right=0;align=left;spacingLeft=6;" parent="2IMz6kc5Xn535oeAkMrh-70" vertex="1">
          <mxGeometry x="30" width="145.3271028037383" height="30" as="geometry" />
        </mxCell>
        <mxCell id="2IMz6kc5Xn535oeAkMrh-73" value="" style="shape=partialRectangle;collapsible=0;dropTarget=0;pointerEvents=0;fillColor=none;points=[[0,0.5],[1,0.5]];portConstraint=eastwest;top=0;left=0;right=0;bottom=0;" parent="2IMz6kc5Xn535oeAkMrh-54" vertex="1">
          <mxGeometry y="250" width="175.3271028037383" height="30" as="geometry" />
        </mxCell>
        <mxCell id="2IMz6kc5Xn535oeAkMrh-74" value="" style="shape=partialRectangle;overflow=hidden;connectable=0;fillColor=none;top=0;left=0;bottom=0;right=0;" parent="2IMz6kc5Xn535oeAkMrh-73" vertex="1">
          <mxGeometry width="30" height="30" as="geometry" />
        </mxCell>
        <mxCell id="2IMz6kc5Xn535oeAkMrh-75" value="profile_image" style="shape=partialRectangle;overflow=hidden;connectable=0;fillColor=none;top=0;left=0;bottom=0;right=0;align=left;spacingLeft=6;" parent="2IMz6kc5Xn535oeAkMrh-73" vertex="1">
          <mxGeometry x="30" width="145.3271028037383" height="30" as="geometry" />
        </mxCell>
        <mxCell id="2IMz6kc5Xn535oeAkMrh-76" value="" style="shape=partialRectangle;collapsible=0;dropTarget=0;pointerEvents=0;fillColor=none;points=[[0,0.5],[1,0.5]];portConstraint=eastwest;top=0;left=0;right=0;bottom=0;" parent="2IMz6kc5Xn535oeAkMrh-54" vertex="1">
          <mxGeometry y="280" width="175.3271028037383" height="30" as="geometry" />
        </mxCell>
        <mxCell id="2IMz6kc5Xn535oeAkMrh-77" value="" style="shape=partialRectangle;overflow=hidden;connectable=0;fillColor=none;top=0;left=0;bottom=0;right=0;" parent="2IMz6kc5Xn535oeAkMrh-76" vertex="1">
          <mxGeometry width="30" height="30" as="geometry" />
        </mxCell>
        <mxCell id="2IMz6kc5Xn535oeAkMrh-78" value="profile_text" style="shape=partialRectangle;overflow=hidden;connectable=0;fillColor=none;top=0;left=0;bottom=0;right=0;align=left;spacingLeft=6;" parent="2IMz6kc5Xn535oeAkMrh-76" vertex="1">
          <mxGeometry x="30" width="145.3271028037383" height="30" as="geometry" />
        </mxCell>
        <mxCell id="2IMz6kc5Xn535oeAkMrh-79" value="" style="shape=partialRectangle;collapsible=0;dropTarget=0;pointerEvents=0;fillColor=none;points=[[0,0.5],[1,0.5]];portConstraint=eastwest;top=0;left=0;right=0;bottom=0;" parent="2IMz6kc5Xn535oeAkMrh-54" vertex="1">
          <mxGeometry y="310" width="175.3271028037383" height="30" as="geometry" />
        </mxCell>
        <mxCell id="2IMz6kc5Xn535oeAkMrh-80" value="" style="shape=partialRectangle;overflow=hidden;connectable=0;fillColor=none;top=0;left=0;bottom=0;right=0;" parent="2IMz6kc5Xn535oeAkMrh-79" vertex="1">
          <mxGeometry width="30" height="30" as="geometry" />
        </mxCell>
        <mxCell id="2IMz6kc5Xn535oeAkMrh-81" value="rememberToken" style="shape=partialRectangle;overflow=hidden;connectable=0;fillColor=none;top=0;left=0;bottom=0;right=0;align=left;spacingLeft=6;" parent="2IMz6kc5Xn535oeAkMrh-79" vertex="1">
          <mxGeometry x="30" width="145.3271028037383" height="30" as="geometry" />
        </mxCell>
        <mxCell id="2IMz6kc5Xn535oeAkMrh-82" value="" style="shape=partialRectangle;collapsible=0;dropTarget=0;pointerEvents=0;fillColor=none;points=[[0,0.5],[1,0.5]];portConstraint=eastwest;top=0;left=0;right=0;bottom=0;" parent="2IMz6kc5Xn535oeAkMrh-54" vertex="1">
          <mxGeometry y="340" width="175.3271028037383" height="30" as="geometry" />
        </mxCell>
        <mxCell id="2IMz6kc5Xn535oeAkMrh-83" value="" style="shape=partialRectangle;overflow=hidden;connectable=0;fillColor=none;top=0;left=0;bottom=0;right=0;" parent="2IMz6kc5Xn535oeAkMrh-82" vertex="1">
          <mxGeometry width="30" height="30" as="geometry" />
        </mxCell>
        <mxCell id="2IMz6kc5Xn535oeAkMrh-84" value="created_at" style="shape=partialRectangle;overflow=hidden;connectable=0;fillColor=none;top=0;left=0;bottom=0;right=0;align=left;spacingLeft=6;" parent="2IMz6kc5Xn535oeAkMrh-82" vertex="1">
          <mxGeometry x="30" width="145.3271028037383" height="30" as="geometry" />
        </mxCell>
        <mxCell id="2IMz6kc5Xn535oeAkMrh-85" value="" style="shape=partialRectangle;collapsible=0;dropTarget=0;pointerEvents=0;fillColor=none;points=[[0,0.5],[1,0.5]];portConstraint=eastwest;top=0;left=0;right=0;bottom=0;" parent="2IMz6kc5Xn535oeAkMrh-54" vertex="1">
          <mxGeometry y="370" width="175.3271028037383" height="20" as="geometry" />
        </mxCell>
        <mxCell id="2IMz6kc5Xn535oeAkMrh-86" value="" style="shape=partialRectangle;overflow=hidden;connectable=0;fillColor=none;top=0;left=0;bottom=0;right=0;" parent="2IMz6kc5Xn535oeAkMrh-85" vertex="1">
          <mxGeometry width="30" height="20" as="geometry" />
        </mxCell>
        <mxCell id="2IMz6kc5Xn535oeAkMrh-87" value="updated_at" style="shape=partialRectangle;overflow=hidden;connectable=0;fillColor=none;top=0;left=0;bottom=0;right=0;align=left;spacingLeft=6;" parent="2IMz6kc5Xn535oeAkMrh-85" vertex="1">
          <mxGeometry x="30" width="145.3271028037383" height="20" as="geometry" />
        </mxCell>
        <mxCell id="2IMz6kc5Xn535oeAkMrh-88" value="logs" style="shape=table;startSize=30;container=1;collapsible=1;childLayout=tableLayout;fixedRows=1;rowLines=0;fontStyle=1;align=center;resizeLast=1;" parent="WIyWlLk6GJQsqaUBKTNV-1" vertex="1">
          <mxGeometry x="135.28971962616822" y="319.077025163558" width="162.80373831775702" height="240" as="geometry" />
        </mxCell>
        <mxCell id="2IMz6kc5Xn535oeAkMrh-89" value="" style="shape=partialRectangle;collapsible=0;dropTarget=0;pointerEvents=0;fillColor=none;points=[[0,0.5],[1,0.5]];portConstraint=eastwest;top=0;left=0;right=0;bottom=1;" parent="2IMz6kc5Xn535oeAkMrh-88" vertex="1">
          <mxGeometry y="30" width="162.80373831775702" height="30" as="geometry" />
        </mxCell>
        <mxCell id="2IMz6kc5Xn535oeAkMrh-90" value="PK" style="shape=partialRectangle;overflow=hidden;connectable=0;fillColor=none;top=0;left=0;bottom=0;right=0;fontStyle=1;" parent="2IMz6kc5Xn535oeAkMrh-89" vertex="1">
          <mxGeometry width="30" height="30" as="geometry" />
        </mxCell>
        <mxCell id="2IMz6kc5Xn535oeAkMrh-91" value="id(index)" style="shape=partialRectangle;overflow=hidden;connectable=0;fillColor=none;top=0;left=0;bottom=0;right=0;align=left;spacingLeft=6;fontStyle=5;" parent="2IMz6kc5Xn535oeAkMrh-89" vertex="1">
          <mxGeometry x="30" width="132.80373831775702" height="30" as="geometry" />
        </mxCell>
        <mxCell id="2IMz6kc5Xn535oeAkMrh-92" value="" style="shape=partialRectangle;collapsible=0;dropTarget=0;pointerEvents=0;fillColor=none;points=[[0,0.5],[1,0.5]];portConstraint=eastwest;top=0;left=0;right=0;bottom=0;" parent="2IMz6kc5Xn535oeAkMrh-88" vertex="1">
          <mxGeometry y="60" width="162.80373831775702" height="30" as="geometry" />
        </mxCell>
        <mxCell id="2IMz6kc5Xn535oeAkMrh-93" value="" style="shape=partialRectangle;overflow=hidden;connectable=0;fillColor=none;top=0;left=0;bottom=0;right=0;" parent="2IMz6kc5Xn535oeAkMrh-92" vertex="1">
          <mxGeometry width="30" height="30" as="geometry" />
        </mxCell>
        <mxCell id="2IMz6kc5Xn535oeAkMrh-94" value="user_id(FK,index)" style="shape=partialRectangle;overflow=hidden;connectable=0;fillColor=none;top=0;left=0;bottom=0;right=0;align=left;spacingLeft=6;" parent="2IMz6kc5Xn535oeAkMrh-92" vertex="1">
          <mxGeometry x="30" width="132.80373831775702" height="30" as="geometry" />
        </mxCell>
        <mxCell id="2IMz6kc5Xn535oeAkMrh-95" value="" style="shape=partialRectangle;collapsible=0;dropTarget=0;pointerEvents=0;fillColor=none;points=[[0,0.5],[1,0.5]];portConstraint=eastwest;top=0;left=0;right=0;bottom=0;" parent="2IMz6kc5Xn535oeAkMrh-88" vertex="1">
          <mxGeometry y="90" width="162.80373831775702" height="30" as="geometry" />
        </mxCell>
        <mxCell id="2IMz6kc5Xn535oeAkMrh-96" value="" style="shape=partialRectangle;overflow=hidden;connectable=0;fillColor=none;top=0;left=0;bottom=0;right=0;" parent="2IMz6kc5Xn535oeAkMrh-95" vertex="1">
          <mxGeometry width="30" height="30" as="geometry" />
        </mxCell>
        <mxCell id="2IMz6kc5Xn535oeAkMrh-97" value="title" style="shape=partialRectangle;overflow=hidden;connectable=0;fillColor=none;top=0;left=0;bottom=0;right=0;align=left;spacingLeft=6;" parent="2IMz6kc5Xn535oeAkMrh-95" vertex="1">
          <mxGeometry x="30" width="132.80373831775702" height="30" as="geometry" />
        </mxCell>
        <mxCell id="2IMz6kc5Xn535oeAkMrh-98" value="" style="shape=partialRectangle;collapsible=0;dropTarget=0;pointerEvents=0;fillColor=none;points=[[0,0.5],[1,0.5]];portConstraint=eastwest;top=0;left=0;right=0;bottom=0;" parent="2IMz6kc5Xn535oeAkMrh-88" vertex="1">
          <mxGeometry y="120" width="162.80373831775702" height="30" as="geometry" />
        </mxCell>
        <mxCell id="2IMz6kc5Xn535oeAkMrh-99" value="" style="shape=partialRectangle;overflow=hidden;connectable=0;fillColor=none;top=0;left=0;bottom=0;right=0;" parent="2IMz6kc5Xn535oeAkMrh-98" vertex="1">
          <mxGeometry width="30" height="30" as="geometry" />
        </mxCell>
        <mxCell id="2IMz6kc5Xn535oeAkMrh-100" value="text" style="shape=partialRectangle;overflow=hidden;connectable=0;fillColor=none;top=0;left=0;bottom=0;right=0;align=left;spacingLeft=6;" parent="2IMz6kc5Xn535oeAkMrh-98" vertex="1">
          <mxGeometry x="30" width="132.80373831775702" height="30" as="geometry" />
        </mxCell>
        <mxCell id="2IMz6kc5Xn535oeAkMrh-101" value="" style="shape=partialRectangle;collapsible=0;dropTarget=0;pointerEvents=0;fillColor=none;points=[[0,0.5],[1,0.5]];portConstraint=eastwest;top=0;left=0;right=0;bottom=0;" parent="2IMz6kc5Xn535oeAkMrh-88" vertex="1">
          <mxGeometry y="150" width="162.80373831775702" height="30" as="geometry" />
        </mxCell>
        <mxCell id="2IMz6kc5Xn535oeAkMrh-102" value="" style="shape=partialRectangle;overflow=hidden;connectable=0;fillColor=none;top=0;left=0;bottom=0;right=0;" parent="2IMz6kc5Xn535oeAkMrh-101" vertex="1">
          <mxGeometry width="30" height="30" as="geometry" />
        </mxCell>
        <mxCell id="2IMz6kc5Xn535oeAkMrh-103" value="created_at" style="shape=partialRectangle;overflow=hidden;connectable=0;fillColor=none;top=0;left=0;bottom=0;right=0;align=left;spacingLeft=6;" parent="2IMz6kc5Xn535oeAkMrh-101" vertex="1">
          <mxGeometry x="30" width="132.80373831775702" height="30" as="geometry" />
        </mxCell>
        <mxCell id="2IMz6kc5Xn535oeAkMrh-104" value="" style="shape=partialRectangle;collapsible=0;dropTarget=0;pointerEvents=0;fillColor=none;points=[[0,0.5],[1,0.5]];portConstraint=eastwest;top=0;left=0;right=0;bottom=0;" parent="2IMz6kc5Xn535oeAkMrh-88" vertex="1">
          <mxGeometry y="180" width="162.80373831775702" height="30" as="geometry" />
        </mxCell>
        <mxCell id="2IMz6kc5Xn535oeAkMrh-105" value="" style="shape=partialRectangle;overflow=hidden;connectable=0;fillColor=none;top=0;left=0;bottom=0;right=0;" parent="2IMz6kc5Xn535oeAkMrh-104" vertex="1">
          <mxGeometry width="30" height="30" as="geometry" />
        </mxCell>
        <mxCell id="2IMz6kc5Xn535oeAkMrh-106" value="updated_at" style="shape=partialRectangle;overflow=hidden;connectable=0;fillColor=none;top=0;left=0;bottom=0;right=0;align=left;spacingLeft=6;" parent="2IMz6kc5Xn535oeAkMrh-104" vertex="1">
          <mxGeometry x="30" width="132.80373831775702" height="30" as="geometry" />
        </mxCell>
        <mxCell id="2IMz6kc5Xn535oeAkMrh-107" value="" style="shape=partialRectangle;collapsible=0;dropTarget=0;pointerEvents=0;fillColor=none;points=[[0,0.5],[1,0.5]];portConstraint=eastwest;top=0;left=0;right=0;bottom=0;" parent="2IMz6kc5Xn535oeAkMrh-88" vertex="1">
          <mxGeometry y="210" width="162.80373831775702" height="30" as="geometry" />
        </mxCell>
        <mxCell id="2IMz6kc5Xn535oeAkMrh-108" value="" style="shape=partialRectangle;overflow=hidden;connectable=0;fillColor=none;top=0;left=0;bottom=0;right=0;" parent="2IMz6kc5Xn535oeAkMrh-107" vertex="1">
          <mxGeometry width="30" height="30" as="geometry" />
        </mxCell>
        <mxCell id="2IMz6kc5Xn535oeAkMrh-109" value="deleted_at" style="shape=partialRectangle;overflow=hidden;connectable=0;fillColor=none;top=0;left=0;bottom=0;right=0;align=left;spacingLeft=6;" parent="2IMz6kc5Xn535oeAkMrh-107" vertex="1">
          <mxGeometry x="30" width="132.80373831775702" height="30" as="geometry" />
        </mxCell>
        <mxCell id="2IMz6kc5Xn535oeAkMrh-154" value="favorites" style="shape=table;startSize=30;container=1;collapsible=1;childLayout=tableLayout;fixedRows=1;rowLines=0;fontStyle=1;align=center;resizeLast=1;" parent="WIyWlLk6GJQsqaUBKTNV-1" vertex="1">
          <mxGeometry x="-151.49532710280369" y="419.42798784850027" width="150.2803738317757" height="120" as="geometry" />
        </mxCell>
        <mxCell id="2IMz6kc5Xn535oeAkMrh-155" value="" style="shape=partialRectangle;collapsible=0;dropTarget=0;pointerEvents=0;fillColor=none;points=[[0,0.5],[1,0.5]];portConstraint=eastwest;top=0;left=0;right=0;bottom=1;" parent="2IMz6kc5Xn535oeAkMrh-154" vertex="1">
          <mxGeometry y="30" width="150.2803738317757" height="30" as="geometry" />
        </mxCell>
        <mxCell id="2IMz6kc5Xn535oeAkMrh-156" value="PK" style="shape=partialRectangle;overflow=hidden;connectable=0;fillColor=none;top=0;left=0;bottom=0;right=0;fontStyle=1;" parent="2IMz6kc5Xn535oeAkMrh-155" vertex="1">
          <mxGeometry width="30" height="30" as="geometry" />
        </mxCell>
        <mxCell id="2IMz6kc5Xn535oeAkMrh-157" value="id(index)" style="shape=partialRectangle;overflow=hidden;connectable=0;fillColor=none;top=0;left=0;bottom=0;right=0;align=left;spacingLeft=6;fontStyle=5;" parent="2IMz6kc5Xn535oeAkMrh-155" vertex="1">
          <mxGeometry x="30" width="120.2803738317757" height="30" as="geometry" />
        </mxCell>
        <mxCell id="2IMz6kc5Xn535oeAkMrh-158" value="" style="shape=partialRectangle;collapsible=0;dropTarget=0;pointerEvents=0;fillColor=none;points=[[0,0.5],[1,0.5]];portConstraint=eastwest;top=0;left=0;right=0;bottom=0;" parent="2IMz6kc5Xn535oeAkMrh-154" vertex="1">
          <mxGeometry y="60" width="150.2803738317757" height="30" as="geometry" />
        </mxCell>
        <mxCell id="2IMz6kc5Xn535oeAkMrh-159" value="" style="shape=partialRectangle;overflow=hidden;connectable=0;fillColor=none;top=0;left=0;bottom=0;right=0;" parent="2IMz6kc5Xn535oeAkMrh-158" vertex="1">
          <mxGeometry width="30" height="30" as="geometry" />
        </mxCell>
        <mxCell id="2IMz6kc5Xn535oeAkMrh-160" value="user_id(FK,index)" style="shape=partialRectangle;overflow=hidden;connectable=0;fillColor=none;top=0;left=0;bottom=0;right=0;align=left;spacingLeft=6;" parent="2IMz6kc5Xn535oeAkMrh-158" vertex="1">
          <mxGeometry x="30" width="120.2803738317757" height="30" as="geometry" />
        </mxCell>
        <mxCell id="2IMz6kc5Xn535oeAkMrh-161" value="" style="shape=partialRectangle;collapsible=0;dropTarget=0;pointerEvents=0;fillColor=none;points=[[0,0.5],[1,0.5]];portConstraint=eastwest;top=0;left=0;right=0;bottom=0;" parent="2IMz6kc5Xn535oeAkMrh-154" vertex="1">
          <mxGeometry y="90" width="150.2803738317757" height="30" as="geometry" />
        </mxCell>
        <mxCell id="2IMz6kc5Xn535oeAkMrh-162" value="" style="shape=partialRectangle;overflow=hidden;connectable=0;fillColor=none;top=0;left=0;bottom=0;right=0;" parent="2IMz6kc5Xn535oeAkMrh-161" vertex="1">
          <mxGeometry width="30" height="30" as="geometry" />
        </mxCell>
        <mxCell id="2IMz6kc5Xn535oeAkMrh-163" value="log_id(FK,index)" style="shape=partialRectangle;overflow=hidden;connectable=0;fillColor=none;top=0;left=0;bottom=0;right=0;align=left;spacingLeft=6;" parent="2IMz6kc5Xn535oeAkMrh-161" vertex="1">
          <mxGeometry x="30" width="120.2803738317757" height="30" as="geometry" />
        </mxCell>
        <mxCell id="2IMz6kc5Xn535oeAkMrh-164" value="followers" style="shape=table;startSize=30;container=1;collapsible=1;childLayout=tableLayout;fixedRows=1;rowLines=0;fontStyle=1;align=center;resizeLast=1;" parent="WIyWlLk6GJQsqaUBKTNV-1" vertex="1">
          <mxGeometry x="-690" y="136.62072937275377" width="187.85046728971963" height="91.22814789540207" as="geometry" />
        </mxCell>
        <mxCell id="2IMz6kc5Xn535oeAkMrh-165" value="" style="shape=partialRectangle;collapsible=0;dropTarget=0;pointerEvents=0;fillColor=none;points=[[0,0.5],[1,0.5]];portConstraint=eastwest;top=0;left=0;right=0;bottom=0;" parent="2IMz6kc5Xn535oeAkMrh-164" vertex="1">
          <mxGeometry y="30" width="187.85046728971963" height="30" as="geometry" />
        </mxCell>
        <mxCell id="2IMz6kc5Xn535oeAkMrh-166" value="" style="shape=partialRectangle;overflow=hidden;connectable=0;fillColor=none;top=0;left=0;bottom=0;right=0;" parent="2IMz6kc5Xn535oeAkMrh-165" vertex="1">
          <mxGeometry width="30" height="30" as="geometry" />
        </mxCell>
        <mxCell id="2IMz6kc5Xn535oeAkMrh-167" value="following_id(FK,index)" style="shape=partialRectangle;overflow=hidden;connectable=0;fillColor=none;top=0;left=0;bottom=0;right=0;align=left;spacingLeft=6;" parent="2IMz6kc5Xn535oeAkMrh-165" vertex="1">
          <mxGeometry x="30" width="157.85046728971963" height="30" as="geometry" />
        </mxCell>
        <mxCell id="2IMz6kc5Xn535oeAkMrh-168" value="" style="shape=partialRectangle;collapsible=0;dropTarget=0;pointerEvents=0;fillColor=none;points=[[0,0.5],[1,0.5]];portConstraint=eastwest;top=0;left=0;right=0;bottom=0;" parent="2IMz6kc5Xn535oeAkMrh-164" vertex="1">
          <mxGeometry y="60" width="187.85046728971963" height="30" as="geometry" />
        </mxCell>
        <mxCell id="2IMz6kc5Xn535oeAkMrh-169" value="" style="shape=partialRectangle;overflow=hidden;connectable=0;fillColor=none;top=0;left=0;bottom=0;right=0;" parent="2IMz6kc5Xn535oeAkMrh-168" vertex="1">
          <mxGeometry width="30" height="30" as="geometry" />
        </mxCell>
        <mxCell id="2IMz6kc5Xn535oeAkMrh-170" value="followed_id(FK,index)" style="shape=partialRectangle;overflow=hidden;connectable=0;fillColor=none;top=0;left=0;bottom=0;right=0;align=left;spacingLeft=6;" parent="2IMz6kc5Xn535oeAkMrh-168" vertex="1">
          <mxGeometry x="30" width="157.85046728971963" height="30" as="geometry" />
        </mxCell>
        <mxCell id="2IMz6kc5Xn535oeAkMrh-171" value="events" style="shape=table;startSize=30;container=1;collapsible=1;childLayout=tableLayout;fixedRows=1;rowLines=0;fontStyle=1;align=center;resizeLast=1;" parent="WIyWlLk6GJQsqaUBKTNV-1" vertex="1">
          <mxGeometry x="-176.54241134751783" y="90.69914481416933" width="175.3309219858156" height="270" as="geometry" />
        </mxCell>
        <mxCell id="2IMz6kc5Xn535oeAkMrh-172" value="" style="shape=partialRectangle;collapsible=0;dropTarget=0;pointerEvents=0;fillColor=none;points=[[0,0.5],[1,0.5]];portConstraint=eastwest;top=0;left=0;right=0;bottom=1;" parent="2IMz6kc5Xn535oeAkMrh-171" vertex="1">
          <mxGeometry y="30" width="175.3309219858156" height="30" as="geometry" />
        </mxCell>
        <mxCell id="2IMz6kc5Xn535oeAkMrh-173" value="PK" style="shape=partialRectangle;overflow=hidden;connectable=0;fillColor=none;top=0;left=0;bottom=0;right=0;fontStyle=1;" parent="2IMz6kc5Xn535oeAkMrh-172" vertex="1">
          <mxGeometry width="30" height="30" as="geometry" />
        </mxCell>
        <mxCell id="2IMz6kc5Xn535oeAkMrh-174" value="id(index)" style="shape=partialRectangle;overflow=hidden;connectable=0;fillColor=none;top=0;left=0;bottom=0;right=0;align=left;spacingLeft=6;fontStyle=5;" parent="2IMz6kc5Xn535oeAkMrh-172" vertex="1">
          <mxGeometry x="30" width="145.3309219858156" height="30" as="geometry" />
        </mxCell>
        <mxCell id="2IMz6kc5Xn535oeAkMrh-175" value="" style="shape=partialRectangle;collapsible=0;dropTarget=0;pointerEvents=0;fillColor=none;points=[[0,0.5],[1,0.5]];portConstraint=eastwest;top=0;left=0;right=0;bottom=0;" parent="2IMz6kc5Xn535oeAkMrh-171" vertex="1">
          <mxGeometry y="60" width="175.3309219858156" height="30" as="geometry" />
        </mxCell>
        <mxCell id="2IMz6kc5Xn535oeAkMrh-176" value="" style="shape=partialRectangle;overflow=hidden;connectable=0;fillColor=none;top=0;left=0;bottom=0;right=0;" parent="2IMz6kc5Xn535oeAkMrh-175" vertex="1">
          <mxGeometry width="30" height="30" as="geometry" />
        </mxCell>
        <mxCell id="2IMz6kc5Xn535oeAkMrh-177" value="user_id (FK,index)" style="shape=partialRectangle;overflow=hidden;connectable=0;fillColor=none;top=0;left=0;bottom=0;right=0;align=left;spacingLeft=6;" parent="2IMz6kc5Xn535oeAkMrh-175" vertex="1">
          <mxGeometry x="30" width="145.3309219858156" height="30" as="geometry" />
        </mxCell>
        <mxCell id="2IMz6kc5Xn535oeAkMrh-178" value="" style="shape=partialRectangle;collapsible=0;dropTarget=0;pointerEvents=0;fillColor=none;points=[[0,0.5],[1,0.5]];portConstraint=eastwest;top=0;left=0;right=0;bottom=0;" parent="2IMz6kc5Xn535oeAkMrh-171" vertex="1">
          <mxGeometry y="90" width="175.3309219858156" height="30" as="geometry" />
        </mxCell>
        <mxCell id="2IMz6kc5Xn535oeAkMrh-179" value="" style="shape=partialRectangle;overflow=hidden;connectable=0;fillColor=none;top=0;left=0;bottom=0;right=0;" parent="2IMz6kc5Xn535oeAkMrh-178" vertex="1">
          <mxGeometry width="30" height="30" as="geometry" />
        </mxCell>
        <mxCell id="2IMz6kc5Xn535oeAkMrh-180" value="event_part(index)" style="shape=partialRectangle;overflow=hidden;connectable=0;fillColor=none;top=0;left=0;bottom=0;right=0;align=left;spacingLeft=6;" parent="2IMz6kc5Xn535oeAkMrh-178" vertex="1">
          <mxGeometry x="30" width="145.3309219858156" height="30" as="geometry" />
        </mxCell>
        <mxCell id="2IMz6kc5Xn535oeAkMrh-181" value="" style="shape=partialRectangle;collapsible=0;dropTarget=0;pointerEvents=0;fillColor=none;points=[[0,0.5],[1,0.5]];portConstraint=eastwest;top=0;left=0;right=0;bottom=0;" parent="2IMz6kc5Xn535oeAkMrh-171" vertex="1">
          <mxGeometry y="120" width="175.3309219858156" height="30" as="geometry" />
        </mxCell>
        <mxCell id="2IMz6kc5Xn535oeAkMrh-182" value="" style="shape=partialRectangle;overflow=hidden;connectable=0;fillColor=none;top=0;left=0;bottom=0;right=0;" parent="2IMz6kc5Xn535oeAkMrh-181" vertex="1">
          <mxGeometry width="30" height="30" as="geometry" />
        </mxCell>
        <mxCell id="2IMz6kc5Xn535oeAkMrh-183" value="event_name" style="shape=partialRectangle;overflow=hidden;connectable=0;fillColor=none;top=0;left=0;bottom=0;right=0;align=left;spacingLeft=6;" parent="2IMz6kc5Xn535oeAkMrh-181" vertex="1">
          <mxGeometry x="30" width="145.3309219858156" height="30" as="geometry" />
        </mxCell>
        <mxCell id="2IMz6kc5Xn535oeAkMrh-184" value="" style="shape=partialRectangle;collapsible=0;dropTarget=0;pointerEvents=0;fillColor=none;points=[[0,0.5],[1,0.5]];portConstraint=eastwest;top=0;left=0;right=0;bottom=0;" parent="2IMz6kc5Xn535oeAkMrh-171" vertex="1">
          <mxGeometry y="150" width="175.3309219858156" height="30" as="geometry" />
        </mxCell>
        <mxCell id="2IMz6kc5Xn535oeAkMrh-185" value="" style="shape=partialRectangle;overflow=hidden;connectable=0;fillColor=none;top=0;left=0;bottom=0;right=0;" parent="2IMz6kc5Xn535oeAkMrh-184" vertex="1">
          <mxGeometry width="30" height="30" as="geometry" />
        </mxCell>
        <mxCell id="2IMz6kc5Xn535oeAkMrh-186" value="event_explanation" style="shape=partialRectangle;overflow=hidden;connectable=0;fillColor=none;top=0;left=0;bottom=0;right=0;align=left;spacingLeft=6;" parent="2IMz6kc5Xn535oeAkMrh-184" vertex="1">
          <mxGeometry x="30" width="145.3309219858156" height="30" as="geometry" />
        </mxCell>
        <mxCell id="2IMz6kc5Xn535oeAkMrh-187" value="" style="shape=partialRectangle;collapsible=0;dropTarget=0;pointerEvents=0;fillColor=none;points=[[0,0.5],[1,0.5]];portConstraint=eastwest;top=0;left=0;right=0;bottom=0;" parent="2IMz6kc5Xn535oeAkMrh-171" vertex="1">
          <mxGeometry y="180" width="175.3309219858156" height="30" as="geometry" />
        </mxCell>
        <mxCell id="2IMz6kc5Xn535oeAkMrh-188" value="" style="shape=partialRectangle;overflow=hidden;connectable=0;fillColor=none;top=0;left=0;bottom=0;right=0;" parent="2IMz6kc5Xn535oeAkMrh-187" vertex="1">
          <mxGeometry width="30" height="30" as="geometry" />
        </mxCell>
        <mxCell id="2IMz6kc5Xn535oeAkMrh-189" value="created_at" style="shape=partialRectangle;overflow=hidden;connectable=0;fillColor=none;top=0;left=0;bottom=0;right=0;align=left;spacingLeft=6;" parent="2IMz6kc5Xn535oeAkMrh-187" vertex="1">
          <mxGeometry x="30" width="145.3309219858156" height="30" as="geometry" />
        </mxCell>
        <mxCell id="2IMz6kc5Xn535oeAkMrh-190" value="" style="shape=partialRectangle;collapsible=0;dropTarget=0;pointerEvents=0;fillColor=none;points=[[0,0.5],[1,0.5]];portConstraint=eastwest;top=0;left=0;right=0;bottom=0;" parent="2IMz6kc5Xn535oeAkMrh-171" vertex="1">
          <mxGeometry y="210" width="175.3309219858156" height="30" as="geometry" />
        </mxCell>
        <mxCell id="2IMz6kc5Xn535oeAkMrh-191" value="" style="shape=partialRectangle;overflow=hidden;connectable=0;fillColor=none;top=0;left=0;bottom=0;right=0;" parent="2IMz6kc5Xn535oeAkMrh-190" vertex="1">
          <mxGeometry width="30" height="30" as="geometry" />
        </mxCell>
        <mxCell id="2IMz6kc5Xn535oeAkMrh-192" value="updated_at" style="shape=partialRectangle;overflow=hidden;connectable=0;fillColor=none;top=0;left=0;bottom=0;right=0;align=left;spacingLeft=6;" parent="2IMz6kc5Xn535oeAkMrh-190" vertex="1">
          <mxGeometry x="30" width="145.3309219858156" height="30" as="geometry" />
        </mxCell>
        <mxCell id="2IMz6kc5Xn535oeAkMrh-193" value="" style="shape=partialRectangle;collapsible=0;dropTarget=0;pointerEvents=0;fillColor=none;points=[[0,0.5],[1,0.5]];portConstraint=eastwest;top=0;left=0;right=0;bottom=0;" parent="2IMz6kc5Xn535oeAkMrh-171" vertex="1">
          <mxGeometry y="240" width="175.3309219858156" height="30" as="geometry" />
        </mxCell>
        <mxCell id="2IMz6kc5Xn535oeAkMrh-194" value="" style="shape=partialRectangle;overflow=hidden;connectable=0;fillColor=none;top=0;left=0;bottom=0;right=0;" parent="2IMz6kc5Xn535oeAkMrh-193" vertex="1">
          <mxGeometry width="30" height="30" as="geometry" />
        </mxCell>
        <mxCell id="2IMz6kc5Xn535oeAkMrh-195" value="deleted_at" style="shape=partialRectangle;overflow=hidden;connectable=0;fillColor=none;top=0;left=0;bottom=0;right=0;align=left;spacingLeft=6;" parent="2IMz6kc5Xn535oeAkMrh-193" vertex="1">
          <mxGeometry x="30" width="145.3309219858156" height="30" as="geometry" />
        </mxCell>
        <mxCell id="2IMz6kc5Xn535oeAkMrh-228" value="" style="group" parent="WIyWlLk6GJQsqaUBKTNV-1" vertex="1" connectable="0">
          <mxGeometry x="6.299065420560737" y="474.1648765857415" width="123.98130841121494" height="18.245629579080422" as="geometry" />
        </mxCell>
        <mxCell id="2IMz6kc5Xn535oeAkMrh-44" value="" style="endArrow=none;html=1;" parent="2IMz6kc5Xn535oeAkMrh-228" edge="1">
          <mxGeometry x="-6.199065420560748" width="61.990654205607484" height="45.61407394770106" as="geometry">
            <mxPoint x="103.84320160213605" y="9.122814789540211" as="sourcePoint" />
            <mxPoint x="123.14886248331108" as="targetPoint" />
          </mxGeometry>
        </mxCell>
        <mxCell id="2IMz6kc5Xn535oeAkMrh-45" value="" style="endArrow=none;html=1;" parent="2IMz6kc5Xn535oeAkMrh-228" edge="1">
          <mxGeometry x="-6.199065420560748" width="61.990654205607484" height="45.61407394770106" as="geometry">
            <mxPoint x="103.8432016021362" y="9.122814789540211" as="sourcePoint" />
            <mxPoint x="123.14886248331108" y="18.245629579080422" as="targetPoint" />
          </mxGeometry>
        </mxCell>
        <mxCell id="2IMz6kc5Xn535oeAkMrh-46" value="" style="endArrow=none;html=1;" parent="2IMz6kc5Xn535oeAkMrh-228" edge="1">
          <mxGeometry width="61.990654205607484" height="45.61407394770106" as="geometry">
            <mxPoint y="9.122814789540211" as="sourcePoint" />
            <mxPoint x="123.98130841121497" y="9.122814789540211" as="targetPoint" />
          </mxGeometry>
        </mxCell>
        <mxCell id="2IMz6kc5Xn535oeAkMrh-299" value="" style="endArrow=none;html=1;" parent="2IMz6kc5Xn535oeAkMrh-228" edge="1">
          <mxGeometry width="50" height="50" relative="1" as="geometry">
            <mxPoint y="13.684222184310318" as="sourcePoint" />
            <mxPoint y="4.5614073947701055" as="targetPoint" />
          </mxGeometry>
        </mxCell>
        <mxCell id="2IMz6kc5Xn535oeAkMrh-229" value="" style="group;rotation=-180;" parent="WIyWlLk6GJQsqaUBKTNV-1" vertex="1" connectable="0">
          <mxGeometry x="-255.4392523364486" y="474.1648765857415" width="110.2056074766355" height="18.245629579080422" as="geometry" />
        </mxCell>
        <mxCell id="2IMz6kc5Xn535oeAkMrh-230" value="" style="endArrow=none;html=1;" parent="2IMz6kc5Xn535oeAkMrh-229" edge="1">
          <mxGeometry x="47.630685941638376" y="-27.368444368620636" width="55.10280373831776" height="45.61407394770106" as="geometry">
            <mxPoint x="5.329543677879287" y="9.122814789540211" as="sourcePoint" />
            <mxPoint x="-11.368275636762458" y="18.245629579080422" as="targetPoint" />
          </mxGeometry>
        </mxCell>
        <mxCell id="2IMz6kc5Xn535oeAkMrh-231" value="" style="endArrow=none;html=1;" parent="2IMz6kc5Xn535oeAkMrh-229" edge="1">
          <mxGeometry x="47.630685941638376" y="-27.368444368620636" width="55.10280373831776" height="45.61407394770106" as="geometry">
            <mxPoint x="5.329543677879287" y="9.122814789540211" as="sourcePoint" />
            <mxPoint x="-11.368275636762458" as="targetPoint" />
          </mxGeometry>
        </mxCell>
        <mxCell id="2IMz6kc5Xn535oeAkMrh-232" value="" style="endArrow=none;html=1;" parent="2IMz6kc5Xn535oeAkMrh-229" edge="1">
          <mxGeometry x="43.17793412440058" y="-27.368444368620636" width="55.10280373831776" height="45.61407394770106" as="geometry">
            <mxPoint x="97.72414388556359" y="9.122814789540211" as="sourcePoint" />
            <mxPoint x="-12.48146359107191" y="9.122814789540211" as="targetPoint" />
          </mxGeometry>
        </mxCell>
        <mxCell id="2IMz6kc5Xn535oeAkMrh-295" value="" style="endArrow=none;html=1;" parent="2IMz6kc5Xn535oeAkMrh-229" edge="1">
          <mxGeometry width="50" height="50" relative="1" as="geometry">
            <mxPoint x="98.93457943925233" y="13.684222184310318" as="sourcePoint" />
            <mxPoint x="98.93457943925233" y="4.5614073947701055" as="targetPoint" />
          </mxGeometry>
        </mxCell>
        <mxCell id="2IMz6kc5Xn535oeAkMrh-233" value="" style="group" parent="WIyWlLk6GJQsqaUBKTNV-1" vertex="1" connectable="0">
          <mxGeometry x="-271.71962616822435" y="663.9194242081779" width="123.98130841121494" height="18.245629579080422" as="geometry" />
        </mxCell>
        <mxCell id="2IMz6kc5Xn535oeAkMrh-234" value="" style="endArrow=none;html=1;" parent="2IMz6kc5Xn535oeAkMrh-233" edge="1">
          <mxGeometry x="-6.199065420560748" width="61.990654205607484" height="45.61407394770106" as="geometry">
            <mxPoint x="103.84320160213605" y="9.122814789540211" as="sourcePoint" />
            <mxPoint x="123.14886248331108" as="targetPoint" />
          </mxGeometry>
        </mxCell>
        <mxCell id="2IMz6kc5Xn535oeAkMrh-235" value="" style="endArrow=none;html=1;" parent="2IMz6kc5Xn535oeAkMrh-233" edge="1">
          <mxGeometry x="-6.199065420560748" width="61.990654205607484" height="45.61407394770106" as="geometry">
            <mxPoint x="103.8432016021362" y="9.122814789540211" as="sourcePoint" />
            <mxPoint x="123.14886248331108" y="18.245629579080422" as="targetPoint" />
          </mxGeometry>
        </mxCell>
        <mxCell id="2IMz6kc5Xn535oeAkMrh-236" value="" style="endArrow=none;html=1;" parent="2IMz6kc5Xn535oeAkMrh-233" edge="1">
          <mxGeometry width="61.990654205607484" height="45.61407394770106" as="geometry">
            <mxPoint y="9.122814789540211" as="sourcePoint" />
            <mxPoint x="123.98130841121497" y="9.122814789540211" as="targetPoint" />
          </mxGeometry>
        </mxCell>
        <mxCell id="2IMz6kc5Xn535oeAkMrh-297" value="" style="endArrow=none;html=1;" parent="2IMz6kc5Xn535oeAkMrh-233" edge="1">
          <mxGeometry width="50" height="50" relative="1" as="geometry">
            <mxPoint y="13.684222184310318" as="sourcePoint" />
            <mxPoint y="4.5614073947701055" as="targetPoint" />
          </mxGeometry>
        </mxCell>
        <mxCell id="2IMz6kc5Xn535oeAkMrh-246" value="" style="group" parent="WIyWlLk6GJQsqaUBKTNV-1" vertex="1" connectable="0">
          <mxGeometry x="306.85981308411203" y="474.1648765857415" width="150.2803738317757" height="18.245629579080422" as="geometry" />
        </mxCell>
        <mxCell id="2IMz6kc5Xn535oeAkMrh-247" value="" style="endArrow=none;html=1;" parent="2IMz6kc5Xn535oeAkMrh-246" edge="1">
          <mxGeometry x="-7.514018691588785" width="75.14018691588785" height="45.61407394770106" as="geometry">
            <mxPoint x="125.87054739652855" y="9.122814789540211" as="sourcePoint" />
            <mxPoint x="149.27134846461954" as="targetPoint" />
          </mxGeometry>
        </mxCell>
        <mxCell id="2IMz6kc5Xn535oeAkMrh-248" value="" style="endArrow=none;html=1;" parent="2IMz6kc5Xn535oeAkMrh-246" edge="1">
          <mxGeometry x="-7.514018691588785" width="75.14018691588785" height="45.61407394770106" as="geometry">
            <mxPoint x="125.8705473965287" y="9.122814789540211" as="sourcePoint" />
            <mxPoint x="149.27134846461954" y="18.245629579080422" as="targetPoint" />
          </mxGeometry>
        </mxCell>
        <mxCell id="2IMz6kc5Xn535oeAkMrh-249" value="" style="endArrow=none;html=1;" parent="2IMz6kc5Xn535oeAkMrh-246" edge="1">
          <mxGeometry width="75.14018691588785" height="45.61407394770106" as="geometry">
            <mxPoint y="9.122814789540211" as="sourcePoint" />
            <mxPoint x="150.2803738317757" y="9.122814789540211" as="targetPoint" />
          </mxGeometry>
        </mxCell>
        <mxCell id="2IMz6kc5Xn535oeAkMrh-298" value="" style="endArrow=none;html=1;" parent="2IMz6kc5Xn535oeAkMrh-246" edge="1">
          <mxGeometry width="50" height="50" relative="1" as="geometry">
            <mxPoint y="13.684222184310318" as="sourcePoint" />
            <mxPoint y="4.5614073947701055" as="targetPoint" />
          </mxGeometry>
        </mxCell>
        <mxCell id="2IMz6kc5Xn535oeAkMrh-250" value="" style="group" parent="WIyWlLk6GJQsqaUBKTNV-1" vertex="1" connectable="0">
          <mxGeometry x="10.056074766355096" y="711.1124315347066" width="239.196261682243" height="18.245629579080422" as="geometry" />
        </mxCell>
        <mxCell id="2IMz6kc5Xn535oeAkMrh-237" value="" style="group;rotation=-180;" parent="2IMz6kc5Xn535oeAkMrh-250" vertex="1" connectable="0">
          <mxGeometry x="6.261682242990654" width="123.98130841121494" height="18.245629579080422" as="geometry" />
        </mxCell>
        <mxCell id="2IMz6kc5Xn535oeAkMrh-238" value="" style="endArrow=none;html=1;" parent="2IMz6kc5Xn535oeAkMrh-237" edge="1">
          <mxGeometry x="67.62616822429906" y="-27.368444368620636" width="61.990654205607484" height="45.61407394770106" as="geometry">
            <mxPoint x="20.037383177570092" y="9.122814789540211" as="sourcePoint" />
            <mxPoint x="1.2523364485981308" y="18.245629579080422" as="targetPoint" />
          </mxGeometry>
        </mxCell>
        <mxCell id="2IMz6kc5Xn535oeAkMrh-239" value="" style="endArrow=none;html=1;" parent="2IMz6kc5Xn535oeAkMrh-237" edge="1">
          <mxGeometry x="67.62616822429906" y="-27.368444368620636" width="61.990654205607484" height="45.61407394770106" as="geometry">
            <mxPoint x="20.037383177570092" y="9.122814789540211" as="sourcePoint" />
            <mxPoint x="1.2523364485981308" as="targetPoint" />
          </mxGeometry>
        </mxCell>
        <mxCell id="2IMz6kc5Xn535oeAkMrh-240" value="" style="endArrow=none;html=1;" parent="2IMz6kc5Xn535oeAkMrh-237" edge="1">
          <mxGeometry x="62.61682242990655" y="-27.368444368620636" width="61.990654205607484" height="45.61407394770106" as="geometry">
            <mxPoint x="123.98130841121494" y="9.122814789540211" as="sourcePoint" />
            <mxPoint y="9.122814789540211" as="targetPoint" />
          </mxGeometry>
        </mxCell>
        <mxCell id="2IMz6kc5Xn535oeAkMrh-241" value="" style="endArrow=none;html=1;" parent="2IMz6kc5Xn535oeAkMrh-250" edge="1">
          <mxGeometry width="50" height="50" relative="1" as="geometry">
            <mxPoint x="125.2336448598131" y="9.122814789540211" as="sourcePoint" />
            <mxPoint x="239.196261682243" y="-145.96503663264338" as="targetPoint" />
            <Array as="points">
              <mxPoint x="239.196261682243" y="9.122814789540211" />
            </Array>
          </mxGeometry>
        </mxCell>
        <mxCell id="2IMz6kc5Xn535oeAkMrh-251" value="" style="endArrow=none;html=1;" parent="WIyWlLk6GJQsqaUBKTNV-1" edge="1">
          <mxGeometry x="-690" y="81.8838406355125" width="48.20143884892086" height="45.089774247152754" as="geometry">
            <mxPoint x="-589.8130841121495" y="483.2876913752818" as="sourcePoint" />
            <mxPoint x="-652.4299065420561" y="236.9716920576961" as="targetPoint" />
            <Array as="points">
              <mxPoint x="-652.4299065420561" y="483.2876913752818" />
            </Array>
          </mxGeometry>
        </mxCell>
        <mxCell id="2IMz6kc5Xn535oeAkMrh-252" value="" style="group" parent="WIyWlLk6GJQsqaUBKTNV-1" vertex="1" connectable="0">
          <mxGeometry x="-589.8130841121495" y="474.1648765857415" width="125.2336448598131" height="18.245629579080422" as="geometry" />
        </mxCell>
        <mxCell id="2IMz6kc5Xn535oeAkMrh-253" value="" style="endArrow=none;html=1;" parent="2IMz6kc5Xn535oeAkMrh-252" edge="1">
          <mxGeometry x="-6.261682242990655" width="62.61682242990656" height="45.61407394770106" as="geometry">
            <mxPoint x="104.89212283044048" y="9.122814789540211" as="sourcePoint" />
            <mxPoint x="124.39279038718293" as="targetPoint" />
          </mxGeometry>
        </mxCell>
        <mxCell id="2IMz6kc5Xn535oeAkMrh-254" value="" style="endArrow=none;html=1;" parent="2IMz6kc5Xn535oeAkMrh-252" edge="1">
          <mxGeometry x="-6.261682242990655" width="62.61682242990656" height="45.61407394770106" as="geometry">
            <mxPoint x="104.8921228304406" y="9.122814789540211" as="sourcePoint" />
            <mxPoint x="124.39279038718293" y="18.245629579080422" as="targetPoint" />
          </mxGeometry>
        </mxCell>
        <mxCell id="2IMz6kc5Xn535oeAkMrh-255" value="" style="endArrow=none;html=1;" parent="2IMz6kc5Xn535oeAkMrh-252" edge="1">
          <mxGeometry width="62.61682242990656" height="45.61407394770106" as="geometry">
            <mxPoint y="9.122814789540211" as="sourcePoint" />
            <mxPoint x="125.23364485981313" y="9.122814789540211" as="targetPoint" />
          </mxGeometry>
        </mxCell>
        <mxCell id="2IMz6kc5Xn535oeAkMrh-257" value="" style="endArrow=none;html=1;" parent="WIyWlLk6GJQsqaUBKTNV-1" edge="1">
          <mxGeometry x="-690" y="81.8838406355125" width="48.20143884892086" height="45.089774247152754" as="geometry">
            <mxPoint x="-489.6261682242991" y="163.98917374137443" as="sourcePoint" />
            <mxPoint x="-401.96261682242994" y="255.2173216367765" as="targetPoint" />
            <Array as="points">
              <mxPoint x="-401.96261682242994" y="163.98917374137443" />
            </Array>
          </mxGeometry>
        </mxCell>
        <mxCell id="2IMz6kc5Xn535oeAkMrh-258" value="" style="group;rotation=90;" parent="WIyWlLk6GJQsqaUBKTNV-1" vertex="1" connectable="0">
          <mxGeometry x="-457.0654205607477" y="273.4629512158569" width="110.2056074766355" height="18.245629579080422" as="geometry" />
        </mxCell>
        <mxCell id="2IMz6kc5Xn535oeAkMrh-259" value="" style="endArrow=none;html=1;" parent="2IMz6kc5Xn535oeAkMrh-258" edge="1">
          <mxGeometry x="8.766355140186917" y="-28.280725847574658" width="55.10280373831776" height="45.61407394770106" as="geometry">
            <mxPoint x="55.10280373831775" y="45.61407394770106" as="sourcePoint" />
            <mxPoint x="67.62616822429906" y="57.47373317410333" as="targetPoint" />
          </mxGeometry>
        </mxCell>
        <mxCell id="2IMz6kc5Xn535oeAkMrh-260" value="" style="endArrow=none;html=1;" parent="2IMz6kc5Xn535oeAkMrh-258" edge="1">
          <mxGeometry x="8.766355140186917" y="-28.280725847574658" width="55.10280373831776" height="45.61407394770106" as="geometry">
            <mxPoint x="55.10280373831775" y="45.61407394770106" as="sourcePoint" />
            <mxPoint x="42.57943925233644" y="57.47373317410333" as="targetPoint" />
          </mxGeometry>
        </mxCell>
        <mxCell id="2IMz6kc5Xn535oeAkMrh-261" value="" style="endArrow=none;html=1;" parent="2IMz6kc5Xn535oeAkMrh-258" edge="1">
          <mxGeometry x="8.766355140186917" y="-24.631599931758572" width="55.10280373831776" height="45.61407394770106" as="geometry">
            <mxPoint x="55.10280373831775" y="-21.894755494896508" as="sourcePoint" />
            <mxPoint x="55.10280373831775" y="58.38601465305736" as="targetPoint" />
          </mxGeometry>
        </mxCell>
        <mxCell id="2IMz6kc5Xn535oeAkMrh-262" value="" style="endArrow=none;html=1;" parent="WIyWlLk6GJQsqaUBKTNV-1" edge="1">
          <mxGeometry x="-690" y="81.8838406355125" width="48.20143884892086" height="45.089774247152754" as="geometry">
            <mxPoint x="-334.3364485981308" y="328.19983995309815" as="sourcePoint" />
            <mxPoint x="-239.15887850467288" y="136.62072937275377" as="targetPoint" />
            <Array as="points">
              <mxPoint x="-334.3364485981308" y="209.60324768907543" />
              <mxPoint x="-334.3364485981308" y="136.62072937275377" />
            </Array>
          </mxGeometry>
        </mxCell>
        <mxCell id="2IMz6kc5Xn535oeAkMrh-263" value="" style="group" parent="WIyWlLk6GJQsqaUBKTNV-1" vertex="1" connectable="0">
          <mxGeometry x="-306.78504672897196" y="127.49791458321356" width="123.98130841121494" height="18.245629579080422" as="geometry" />
        </mxCell>
        <mxCell id="2IMz6kc5Xn535oeAkMrh-264" value="" style="endArrow=none;html=1;" parent="2IMz6kc5Xn535oeAkMrh-263" edge="1">
          <mxGeometry x="-6.199065420560748" width="61.990654205607484" height="45.61407394770106" as="geometry">
            <mxPoint x="103.84320160213605" y="9.122814789540211" as="sourcePoint" />
            <mxPoint x="123.14886248331108" as="targetPoint" />
          </mxGeometry>
        </mxCell>
        <mxCell id="2IMz6kc5Xn535oeAkMrh-265" value="" style="endArrow=none;html=1;" parent="2IMz6kc5Xn535oeAkMrh-263" edge="1">
          <mxGeometry x="-6.199065420560748" width="61.990654205607484" height="45.61407394770106" as="geometry">
            <mxPoint x="103.8432016021362" y="9.122814789540211" as="sourcePoint" />
            <mxPoint x="123.14886248331108" y="18.245629579080422" as="targetPoint" />
          </mxGeometry>
        </mxCell>
        <mxCell id="2IMz6kc5Xn535oeAkMrh-266" value="" style="endArrow=none;html=1;" parent="2IMz6kc5Xn535oeAkMrh-263" edge="1">
          <mxGeometry width="61.990654205607484" height="45.61407394770106" as="geometry">
            <mxPoint y="9.122814789540211" as="sourcePoint" />
            <mxPoint x="123.98130841121497" y="9.122814789540211" as="targetPoint" />
          </mxGeometry>
        </mxCell>
        <mxCell id="2IMz6kc5Xn535oeAkMrh-277" value="" style="endArrow=none;html=1;" parent="WIyWlLk6GJQsqaUBKTNV-1" edge="1">
          <mxGeometry x="-690" y="81.8838406355125" width="48.20143884892086" height="45.089774247152754" as="geometry">
            <mxPoint x="10" y="156" as="sourcePoint" />
            <mxPoint x="562.3364485981306" y="247.26893817646445" as="targetPoint" />
            <Array as="points">
              <mxPoint x="562.3364485981306" y="156.04079028106236" />
            </Array>
          </mxGeometry>
        </mxCell>
        <mxCell id="2IMz6kc5Xn535oeAkMrh-278" value="" style="group;rotation=90;" parent="WIyWlLk6GJQsqaUBKTNV-1" vertex="1" connectable="0">
          <mxGeometry x="507.233644859813" y="202.30499585744326" width="110.2056074766355" height="18.245629579080422" as="geometry" />
        </mxCell>
        <mxCell id="2IMz6kc5Xn535oeAkMrh-279" value="" style="endArrow=none;html=1;" parent="2IMz6kc5Xn535oeAkMrh-278" edge="1">
          <mxGeometry x="8.766355140186917" y="-28.280725847574658" width="55.10280373831776" height="45.61407394770106" as="geometry">
            <mxPoint x="55.10280373831775" y="45.61407394770106" as="sourcePoint" />
            <mxPoint x="67.62616822429906" y="57.47373317410333" as="targetPoint" />
          </mxGeometry>
        </mxCell>
        <mxCell id="2IMz6kc5Xn535oeAkMrh-280" value="" style="endArrow=none;html=1;" parent="2IMz6kc5Xn535oeAkMrh-278" edge="1">
          <mxGeometry x="8.766355140186917" y="-28.280725847574658" width="55.10280373831776" height="45.61407394770106" as="geometry">
            <mxPoint x="55.10280373831775" y="45.61407394770106" as="sourcePoint" />
            <mxPoint x="42.57943925233644" y="57.47373317410333" as="targetPoint" />
          </mxGeometry>
        </mxCell>
        <mxCell id="2IMz6kc5Xn535oeAkMrh-281" value="" style="endArrow=none;html=1;" parent="2IMz6kc5Xn535oeAkMrh-278" edge="1">
          <mxGeometry x="8.766355140186917" y="-24.631599931758572" width="55.10280373831776" height="45.61407394770106" as="geometry">
            <mxPoint x="55.10280373831775" y="-21.894755494896508" as="sourcePoint" />
            <mxPoint x="55.10280373831775" y="58.38601465305736" as="targetPoint" />
          </mxGeometry>
        </mxCell>
        <mxCell id="2IMz6kc5Xn535oeAkMrh-282" value="" style="endArrow=none;html=1;" parent="WIyWlLk6GJQsqaUBKTNV-1" edge="1">
          <mxGeometry x="-690" y="81.8838406355125" width="48.20143884892086" height="45.089774247152754" as="geometry">
            <mxPoint x="-340.59813084112153" y="328.19983995309815" as="sourcePoint" />
            <mxPoint x="-328.07476635514024" y="328.19983995309815" as="targetPoint" />
          </mxGeometry>
        </mxCell>
        <mxCell id="2IMz6kc5Xn535oeAkMrh-283" value="" style="endArrow=none;html=1;" parent="WIyWlLk6GJQsqaUBKTNV-1" edge="1">
          <mxGeometry x="-690" y="81.8838406355125" width="48.20143884892086" height="45.089774247152754" as="geometry">
            <mxPoint x="-658.6915887850467" y="237.88397353665007" as="sourcePoint" />
            <mxPoint x="-646.1682242990655" y="237.88397353665007" as="targetPoint" />
          </mxGeometry>
        </mxCell>
        <mxCell id="2IMz6kc5Xn535oeAkMrh-288" value="" style="endArrow=none;html=1;" parent="WIyWlLk6GJQsqaUBKTNV-1" edge="1">
          <mxGeometry x="-690" y="99.8838406355125" width="48.20143884892086" height="45.089774247152754" as="geometry">
            <mxPoint x="242.99065420560737" y="564.2351134231092" as="sourcePoint" />
            <mxPoint x="255.51401869158883" y="564.2351134231092" as="targetPoint" />
          </mxGeometry>
        </mxCell>
        <mxCell id="2IMz6kc5Xn535oeAkMrh-294" value="" style="endArrow=none;html=1;" parent="WIyWlLk6GJQsqaUBKTNV-1" edge="1">
          <mxGeometry x="-690" y="81.8838406355125" width="48.20143884892086" height="45.089774247152754" as="geometry">
            <mxPoint x="-489.6261682242991" y="168.5505811361445" as="sourcePoint" />
            <mxPoint x="-489.6261682242991" y="159.42776634660427" as="targetPoint" />
          </mxGeometry>
        </mxCell>
        <mxCell id="2IMz6kc5Xn535oeAkMrh-296" value="" style="endArrow=none;html=1;" parent="WIyWlLk6GJQsqaUBKTNV-1" edge="1">
          <mxGeometry x="-1154.81" y="138.06051432740242" width="48.20143884892086" height="45.089774247152754" as="geometry">
            <mxPoint x="9.8628971962616" y="160.86755130125297" as="sourcePoint" />
            <mxPoint x="9.8628971962616" y="151.74473651171274" as="targetPoint" />
          </mxGeometry>
        </mxCell>
      </root>
    </mxGraphModel>
  </diagram>
</mxfile>
